<svg xmlns="http://www.w3.org/2000/svg" width="64" height="64" viewBox="0 0 64 64">
  <defs>
    <linearGradient id="g" x1="0" x2="1">
      <stop offset="0" stop-color="#35e0c9"/>
      <stop offset="1" stop-color="#3aa4ff"/>
    </linearGradient>
  </defs>
  <rect x="6" y="6" width="52" height="52" rx="16" fill="rgba(0,0,0,.2)" stroke="rgba(255,255,255,.12)"/>
  <path d="M32 14c8 0 14 6 14 14s-6 22-14 22-14-14-14-22 6-14 14-14z" fill="url(#g)" opacity=".9"/>
  <path d="M32 20c4.4 0 8 3.6 8 8 0 6.5-3.6 15-8 15s-8-8.5-8-15c0-4.4 3.6-8 8-8z" fill="#041015" opacity=".35"/>
  <path d="M31 26h2v10h-2zM27 30h10v2H27z" fill="#e8f3ff"/>
</svg>
